<?xml version="1.0" encoding="utf-8"?>
<!-- Generator: Adobe Illustrator 16.0.0, SVG Export Plug-In . SVG Version: 6.00 Build 0)  -->
<!DOCTYPE svg PUBLIC "-//W3C//DTD SVG 1.1//EN" "http://www.w3.org/Graphics/SVG/1.1/DTD/svg11.dtd">
<svg version="1.1" id="Layer_1" xmlns="http://www.w3.org/2000/svg" xmlns:xlink="http://www.w3.org/1999/xlink" x="0px" y="0px"
	 width="408px" height="66px" viewBox="0 0 408 66" enable-background="new 0 0 408 66" xml:space="preserve">
<g>
	<path d="M67.481,38.577H50.82v16.531c0,0.604-0.28,0.904-0.839,0.904h-0.032c-0.581,0-0.872-0.301-0.872-0.904v-44.3
		c0-0.582,0.291-0.872,0.872-0.872h17.533c2.583,0,4.973,0.646,7.168,1.938c2.196,1.291,3.934,3.04,5.215,5.247
		c1.28,2.206,1.921,4.601,1.921,7.184c0,2.863-0.77,5.457-2.309,7.782c-1.54,2.324-3.568,4.068-6.086,5.23l7.232,17.469
		c0.043,0.172,0.064,0.279,0.064,0.322c0,0.237-0.092,0.447-0.274,0.63c-0.183,0.183-0.382,0.274-0.597,0.274h-0.097
		c-0.151,0-0.312-0.049-0.484-0.146c-0.173-0.097-0.312-0.263-0.42-0.5l-7.233-17.372C70.29,38.383,68.923,38.577,67.481,38.577z
		 M50.82,36.769h16.661c2.303,0,4.413-0.554,6.329-1.663c1.916-1.108,3.423-2.615,4.521-4.521s1.647-3.998,1.647-6.28
		c0-2.303-0.549-4.418-1.647-6.345c-1.098-1.926-2.605-3.449-4.521-4.568c-1.916-1.119-4.025-1.68-6.329-1.68H50.82V36.769z"/>
	<path d="M87.823,36.575c0,3.314,0.834,6.398,2.502,9.25c1.668,2.853,3.923,5.124,6.765,6.813c2.841,1.69,5.93,2.534,9.267,2.534
		c2.044,0,3.853-0.236,5.424-0.71c1.571-0.474,2.879-1.033,3.923-1.679c1.044-0.646,2.18-1.453,3.407-2.422
		c0.237-0.194,0.495-0.291,0.775-0.291c0.194,0,0.355,0.064,0.484,0.194l0.064,0.064c0.129,0.129,0.194,0.29,0.194,0.484
		c0,0.302-0.129,0.57-0.388,0.807c-1.894,1.615-3.977,2.896-6.248,3.843c-2.271,0.947-4.817,1.421-7.636,1.421
		c-3.66,0-7.045-0.915-10.155-2.745c-3.111-1.829-5.581-4.299-7.41-7.41c-1.83-3.11-2.745-6.495-2.745-10.154
		s0.915-7.066,2.745-10.22s4.294-5.661,7.394-7.523c3.1-1.861,6.469-2.793,10.106-2.793c3.767,0,7.222,0.964,10.365,2.89
		c3.143,1.927,5.618,4.387,7.427,7.378c1.808,2.992,2.712,5.995,2.712,9.009v0.129c0,0.581-0.302,0.872-0.904,0.872H87.823V36.575z
		 M97.639,20.075c-2.691,1.507-4.897,3.541-6.619,6.103c-1.723,2.562-2.756,5.36-3.1,8.396h37.1
		c-0.172-2.54-1.087-5.112-2.745-7.718c-1.658-2.604-3.886-4.763-6.684-6.474c-2.798-1.711-5.898-2.567-9.299-2.567
		C103.213,17.814,100.329,18.568,97.639,20.075z"/>
	<path d="M147.283,55.899c-0.161,0.097-0.296,0.146-0.403,0.146h-0.129c-0.129,0-0.27-0.049-0.419-0.146
		c-0.151-0.097-0.28-0.263-0.388-0.5l-16.145-37.714c-0.064-0.172-0.097-0.312-0.097-0.42c0-0.236,0.102-0.43,0.307-0.581
		c0.205-0.15,0.414-0.226,0.63-0.226c0.366,0,0.624,0.193,0.775,0.581l15.402,36.131l15.24-36.099
		c0.15-0.388,0.409-0.581,0.775-0.581c0.215,0,0.425,0.075,0.629,0.226c0.205,0.151,0.307,0.355,0.307,0.614
		c0,0.129-0.033,0.258-0.097,0.387l-15.983,37.682C147.579,55.637,147.444,55.803,147.283,55.899z"/>
	<path d="M170.45,5.545h1.582c0.409,0,0.614,0.237,0.614,0.711v1.42c0,0.475-0.205,0.711-0.614,0.711h-1.55
		c-0.258,0-0.436-0.054-0.533-0.161c-0.097-0.107-0.146-0.291-0.146-0.55V6.191C169.804,5.761,170.019,5.545,170.45,5.545z
		 M171.289,16.427h0.032c0.582,0,0.872,0.334,0.872,1.001v37.552c0,0.689-0.291,1.033-0.872,1.033h-0.032
		c-0.302,0-0.528-0.092-0.678-0.274s-0.226-0.436-0.226-0.759V17.428C170.385,16.761,170.686,16.427,171.289,16.427z"/>
	<path d="M187.143,55.496c-1.959-1.012-3.423-2.298-4.391-3.858c-0.969-1.561-1.453-3.138-1.453-4.73
		c0-0.517,0.172-0.84,0.517-0.969l0.097-0.032c0.129-0.043,0.237-0.064,0.323-0.064c0.258,0,0.473,0.118,0.646,0.355
		c0.172,0.236,0.269,0.527,0.291,0.871c0.107,1.68,0.656,3.138,1.647,4.375c0.99,1.238,2.303,2.18,3.939,2.826
		c1.636,0.646,3.476,0.968,5.521,0.968c1.657,0,3.326-0.274,5.005-0.823s3.105-1.49,4.278-2.825c1.173-1.334,1.76-3.1,1.76-5.295
		c0-2.798-1.007-4.935-3.019-6.409c-2.013-1.475-4.72-2.632-8.121-3.472c-2.454-0.581-4.537-1.27-6.248-2.066
		c-1.711-0.796-3.073-1.867-4.084-3.213c-1.012-1.345-1.518-3.04-1.518-5.085c0-1.809,0.446-3.477,1.34-5.005
		c0.893-1.528,2.228-2.75,4.004-3.665s3.901-1.372,6.377-1.372c2.002,0,3.901,0.447,5.699,1.34c1.797,0.894,3.271,2.083,4.423,3.568
		c1.151,1.485,1.813,3.078,1.986,4.778v0.259c0,0.431-0.108,0.688-0.323,0.774c-0.108,0.064-0.237,0.097-0.388,0.097
		c-0.215,0-0.415-0.064-0.597-0.193c-0.183-0.129-0.296-0.323-0.339-0.581c-0.194-1.55-0.808-2.96-1.841-4.23
		c-1.033-1.27-2.32-2.26-3.858-2.97c-1.539-0.711-3.127-1.066-4.763-1.066c-1.916,0-3.627,0.351-5.134,1.05
		c-1.507,0.7-2.686,1.674-3.536,2.922c-0.851,1.249-1.275,2.681-1.275,4.295c0,2.562,1.006,4.482,3.019,5.764
		c2.012,1.28,4.418,2.212,7.216,2.793c8.503,1.872,12.754,5.769,12.754,11.688c0,2.476-0.657,4.516-1.97,6.118
		c-1.313,1.604-2.949,2.772-4.908,3.504c-1.959,0.731-3.939,1.098-5.941,1.098C191.48,57.014,189.101,56.508,187.143,55.496z"/>
	<path d="M227.504,19.946c0.537,0,0.807,0.27,0.807,0.807v0.032c0,0.194-0.076,0.372-0.227,0.533s-0.344,0.242-0.58,0.242h-7.523
		v27.769c0,1.313,0.35,2.47,1.049,3.471s1.835,1.502,3.406,1.502h1.26c0.796,0,1.194,0.247,1.194,0.742v0.064
		c0,0.151-0.06,0.339-0.177,0.565c-0.119,0.226-0.394,0.339-0.824,0.339c-1.248,0-2.131-0.043-2.647-0.129
		c-1.636-0.259-2.885-0.979-3.745-2.164c-0.861-1.184-1.292-2.604-1.292-4.262V21.561h-5.263c-0.603,0-0.904-0.269-0.904-0.808
		c0-0.537,0.301-0.807,0.904-0.807h5.263V9.517c0-0.667,0.279-1.001,0.839-1.001h0.033c0.602,0,0.904,0.334,0.904,1.001v10.43
		H227.504z"/>
	<path d="M273.611,56.013h-0.031c-0.582,0-0.872-0.355-0.872-1.065V44.68c-1.077,2.368-2.573,4.478-4.488,6.328
		c-1.916,1.852-4.101,3.294-6.555,4.327s-5.016,1.55-7.685,1.55c-3.487,0-6.797-0.921-9.929-2.761
		c-3.132-1.841-5.651-4.321-7.556-7.442c-1.905-3.121-2.857-6.501-2.857-10.139s0.952-7.034,2.857-10.188
		c1.904-3.153,4.424-5.661,7.556-7.523c3.132-1.861,6.441-2.793,9.929-2.793c2.647,0,5.198,0.522,7.652,1.566
		s4.645,2.502,6.57,4.375c1.927,1.872,3.428,4.004,4.505,6.393V17.46c0-0.323,0.069-0.581,0.21-0.775
		c0.14-0.193,0.359-0.29,0.662-0.29h0.031c0.582,0,0.873,0.354,0.873,1.065v37.487C274.484,55.657,274.193,56.013,273.611,56.013z
		 M270.012,27.228c-1.797-2.874-4.145-5.161-7.039-6.861s-5.904-2.552-9.024-2.552c-3.187,0-6.205,0.846-9.058,2.535
		c-2.852,1.69-5.145,3.972-6.877,6.846c-1.732,2.873-2.6,5.989-2.6,9.348c0,3.314,0.867,6.393,2.6,9.234
		c1.732,2.841,4.025,5.107,6.877,6.797c2.853,1.689,5.871,2.534,9.058,2.534c3.337,0,6.446-0.839,9.331-2.519
		c2.885-1.679,5.178-3.939,6.878-6.78c1.7-2.842,2.551-5.931,2.551-9.267C272.708,33.206,271.809,30.101,270.012,27.228z"/>
</g>
<path d="M286.818,11.47c0-0.992,0.455-1.488,1.365-1.488h17.885c2.066,0,3.988,0.388,5.766,1.163
	c1.777,0.774,3.326,1.828,4.65,3.161c1.322,1.333,2.359,2.894,3.115,4.681c0.754,1.788,1.131,3.694,1.131,5.719
	c0,1.447-0.201,2.837-0.605,4.17c-0.402,1.332-0.965,2.567-1.689,3.704c-0.723,1.137-1.59,2.154-2.604,3.053
	c-1.012,0.899-2.139,1.648-3.379,2.247l8.184,16.77v0.403c0,0.641-0.383,0.961-1.146,0.961h-3.75c-0.641,0-1.137-0.382-1.488-1.146
	l-7.439-15.623c-0.166,0.021-0.346,0.031-0.543,0.031c-0.195,0-0.475,0.005-0.836,0.016c-0.363,0.01-0.844,0.015-1.441,0.015
	c-0.6,0-1.391,0-2.371,0c-0.982,0-2.186,0-3.611,0s-3.152,0-5.178,0v15.344c0,0.91-0.475,1.364-1.426,1.364h-3.223
	c-0.91,0-1.365-0.454-1.365-1.364V11.47z M314.779,24.644c0-1.137-0.223-2.232-0.666-3.286c-0.445-1.054-1.055-1.983-1.83-2.789
	c-0.775-0.807-1.695-1.452-2.758-1.938c-1.064-0.485-2.217-0.729-3.457-0.729h-13.236v17.482h13.361
	c1.219,0,2.355-0.237,3.408-0.713c1.055-0.476,1.963-1.116,2.729-1.922c0.764-0.806,1.363-1.736,1.797-2.79
	C314.562,26.906,314.779,25.801,314.779,24.644z"/>
<path d="M360.5,9.981c0.949,0,1.426,0.496,1.426,1.488v3.068c0,0.393-0.119,0.734-0.357,1.023c-0.236,0.289-0.615,0.434-1.131,0.434
	h-24.984v12.74h19.652c0.373,0,0.693,0.108,0.961,0.325c0.27,0.217,0.404,0.584,0.404,1.101v3.161c0,0.372-0.115,0.703-0.342,0.992
	c-0.229,0.29-0.568,0.434-1.023,0.434h-19.652v15.251h25.109c0.949,0,1.426,0.486,1.426,1.457v3.192c0,0.91-0.455,1.364-1.365,1.364
	h-29.818c-0.91,0-1.365-0.434-1.365-1.302V11.407c0-0.95,0.455-1.426,1.365-1.426H360.5z"/>
<path d="M372.99,54.866c-0.145,0.352-0.352,0.63-0.619,0.837c-0.27,0.206-0.609,0.31-1.023,0.31h-3.285
	c-0.951,0-1.426-0.361-1.426-1.085c0-0.145,0.004-0.264,0.016-0.356c0.01-0.093,0.025-0.181,0.047-0.264
	c0.02-0.082,0.041-0.154,0.061-0.217l17.887-42.962c0.041-0.104,0.092-0.223,0.154-0.356c0.062-0.135,0.145-0.259,0.248-0.372
	s0.254-0.212,0.449-0.295c0.197-0.082,0.461-0.124,0.791-0.124h2.045c0.311,0,0.564,0.042,0.76,0.124
	c0.197,0.083,0.346,0.182,0.449,0.295s0.188,0.237,0.248,0.372c0.062,0.134,0.113,0.253,0.156,0.356l17.73,42.962
	c0.02,0.104,0.041,0.207,0.061,0.31c0.021,0.104,0.041,0.202,0.062,0.295s0.031,0.171,0.031,0.232c0,0.724-0.477,1.085-1.426,1.085
	h-3.285c-0.414,0-0.756-0.104-1.023-0.31c-0.27-0.207-0.477-0.485-0.619-0.837l-3.41-8.524h-21.76
	c-0.725,1.839-1.385,3.502-1.984,4.99S373.279,53.998,372.99,54.866z M378.787,40.328h16.895l-8.369-21.202L378.787,40.328z"/>
<path fill-rule="evenodd" clip-rule="evenodd" d="M39.338,2.721c0-1.34-1.086-2.426-2.427-2.426h-2.316
	c-1.34,0-2.426,1.086-2.426,2.426v2.895c0,0.062,0.014,0.121,0.019,0.182l-0.063,28.262c-0.723-0.867-1.444-1.737-2.221-2.557
	c-1.699-1.789-3.643-3.345-5.723-4.66c-1.713-1.082-3.537-1.986-5.442-2.682l-4.305-1.568l2.664-3.173
	c0.081-0.097,0.181-0.173,0.259-0.272c0.254-0.335,0.344-0.734,0.258-1.152c-0.11-0.512-0.476-0.867-0.951-1.047
	c-0.246-0.092-0.535-0.094-0.787-0.035L0.168,20.447l8.634,13.756c0.209,0.331,0.545,0.547,0.926,0.625
	c0.366,0.077,0.752-0.007,1.061-0.221c0.221-0.154,0.359-0.4,0.477-0.633c0.116-0.231,0.103-0.394,0.114-0.654l0.369-4.307
	l4.328,1.796c4.727,1.958,8.836,5.321,11.684,9.603c2.862,4.307,4.364,9.445,4.364,14.623v5.162
	c-0.005,0.061-0.019,0.119-0.019,0.182v2.895c0,1.34,1.086,2.426,2.426,2.426h2.316c1.34,0,2.427-1.086,2.427-2.426l-0.008-23.481
	l0.008,0.009L39.338,2.721z"/>
<g>
</g>
<g>
</g>
<g>
</g>
<g>
</g>
<g>
</g>
<g>
</g>
</svg>
